<svg xmlns="http://www.w3.org/2000/svg" viewBox="0 0 15 15">
  <path d="M4.03 3.37L4.77 4.93L6.2 5.07C6.41 5.07 6.61 5.27 6.61 5.48C6.61 5.75 6.48 5.95 6.2 6.02L6.14 6.02L4.46 5.88C4.39 5.87 4.2 5.82 4.09 5.61L3.89 5.2L3.89 5.82L5.86 12.57L5.86 12.7C5.88 12.81 5.88 12.91 5.86 13L7 13L7 6C7 5.72 7.22 5.5 7.5 5.5C7.78 5.5 8 5.72 8 6L8 13L12.14 13C12.7 13 13.25 12.84 13.73 12.54L15 11.75L15 12.77L13.72 13.56C13.25 13.85 12.71 14 12.15 14L0 14L0.5 13L1.57 13L1.57 12.98L1.57 12.84L2.11 3.77C2.11 3.77 2.18 2.95 2.93 2.82L2.99 2.81L3.1 2.81C3.34 2.82 3.77 2.9 4.03 3.37ZM3.27 7.86L2.93 12.91C2.93 12.94 2.93 12.97 2.92 13L4.54 13L3.27 7.86ZM8.5 8L9.02 8.34C9.84 8.89 10.5 9.27 11 9.5L11.37 9.66C12.21 10.03 13.42 10.47 15 11L13.21 12.07C12.75 12.35 12.21 12.5 11.67 12.5L8.5 12.5L8.5 8ZM3.5 0.5C4.05 0.5 4.5 0.95 4.5 1.5C4.5 2.05 4.05 2.5 3.5 2.5C2.95 2.5 2.5 2.05 2.5 1.5C2.5 0.95 2.95 0.5 3.5 0.5Z"/>
</svg>